# xmcd
#
# Track frame offsets: 
#        150
#        5737
#        13947
#        22629
#        36226
#        54624
#        67136
#        76366
#        86094
#        96911
#        105875
#        116532
#        125443
#        138084
#        155815
#        166179
#        179109
#        188960
#        199858
#        208305
#        216053
#        224985
#        235229
#        243265
#        254990
#        265524
#        273243
#        283337
#
# Disc length: 3881 seconds
#
# Revision: 0
# Processed by: cddbd v1.5.2PL0 Copyright (c) Steve Scherf et al.
# Submitted via: ExactAudioCopyFreeDBPlugin 1.0
#
DISCID=ad0f271c
DTITLE=Johnny Cash [CD3] - Complete Sun and Columbia Singles
DYEAR=2017
DGENRE=Country
TTITLE0=My Treasure
TTITLE1=Sugartime
TTITLE2=Tall Man
TTITLE3=Tennessee Flat-Top Box
TTITLE4=The Big Battle
TTITLE5=When I've Learned
TTITLE6=Blue Train
TTITLE7=Born To Love
TTITLE8=In The Jailhouse Now
TTITLE9=A Little At A Time
TTITLE10=Bonanza
TTITLE11=PIck A Bale O' Cotton
TTITLE12=Peace In The Valley
TTITLE13=Were You There
TTITLE14=Busted
TTITLE15=Send A Picture Of Mother
TTITLE16=Rock Island Line
TTITLE17=Lonesome Whistle
TTITLE18=County Boy
TTITLE19=If The Good Lord's Willing
TTITLE20=Remember Me
TTITLE21=I Was Ther When It Happened
TTITLE22=Wreck Of The Old 97
TTITLE23=Doin' My Time
TTITLE24=You Win Again
TTITLE25=Hey Good Lookin'
TTITLE26=I Could Never Be Ashamed Of You
TTITLE27=I Can't Help It
EXTD=
EXTT0=
EXTT1=
EXTT2=
EXTT3=
EXTT4=
EXTT5=
EXTT6=
EXTT7=
EXTT8=
EXTT9=
EXTT10=
EXTT11=
EXTT12=
EXTT13=
EXTT14=
EXTT15=
EXTT16=
EXTT17=
EXTT18=
EXTT19=
EXTT20=
EXTT21=
EXTT22=
EXTT23=
EXTT24=
EXTT25=
EXTT26=
EXTT27=
PLAYORDER=
